<?xml version="1.0" standalone="no"?><!DOCTYPE svg PUBLIC "-//W3C//DTD SVG 1.1//EN" "http://www.w3.org/Graphics/SVG/1.1/DTD/svg11.dtd"><svg t="1555461066526" class="icon" style="" viewBox="0 0 1024 1024" version="1.1" xmlns="http://www.w3.org/2000/svg" p-id="2124" xmlns:xlink="http://www.w3.org/1999/xlink" width="200" height="200"><defs><style type="text/css"></style></defs><path d="M844.8 193.28H480V130.048a80.64 80.64 0 0 0-76.8-83.968H153.6a80.64 80.64 0 0 0-76.8 83.968v630.784A80.64 80.64 0 0 0 153.6 844.8h691.2a80.64 80.64 0 0 0 76.8-83.968V277.248a80.64 80.64 0 0 0-76.8-83.968z" fill="#DAEAFE" p-id="2125"></path><path d="M921.6 295.68H556.8V232.448a80.64 80.64 0 0 0-76.8-83.968H230.4a80.64 80.64 0 0 0-76.8 83.968v630.784A80.64 80.64 0 0 0 230.4 947.2h691.2a80.64 80.64 0 0 0 76.8-83.968V379.648a80.64 80.64 0 0 0-76.8-83.968z" fill="#4393F9" p-id="2126"></path><path d="M913.92 245.248H625.92a30.208 30.208 0 0 1 0-60.416H913.92a30.208 30.208 0 0 1 0 60.416z" fill="#4393F9" p-id="2127"></path></svg>