<?xml version="1.0" standalone="no"?><!DOCTYPE svg PUBLIC "-//W3C//DTD SVG 1.1//EN" "http://www.w3.org/Graphics/SVG/1.1/DTD/svg11.dtd"><svg t="1554628830164" class="icon" style="" viewBox="0 0 1228 1024" version="1.1" xmlns="http://www.w3.org/2000/svg" p-id="5058" xmlns:xlink="http://www.w3.org/1999/xlink" width="239.84375" height="200"><defs><style type="text/css"></style></defs><path d="M1158.826667 208.213333c-1.706667-3.413333-5.12-6.826667-10.24-8.533333l-68.266667-11.946667-30.72-59.733333c-1.706667-3.413333-6.826667-6.826667-10.24-6.826667-5.12 0-8.533333 1.706667-10.24 6.826667L1000.106667 187.733333l-68.266667 11.946667c-5.12 0-8.533333 3.413333-10.24 8.533333-1.706667 3.413333 0 8.533333 3.413333 11.946667l49.493334 44.373333-11.946667 64.853334c0 5.12 1.706667 8.533333 5.12 11.946666 3.413333 1.706667 8.533333 3.413333 11.946667 0l61.44-29.013333 61.44 29.013333c3.413333 1.706667 8.533333 1.706667 11.946666 0 3.413333-3.413333 5.12-6.826667 5.12-11.946666l-11.946666-64.853334 49.493333-44.373333c1.706667-3.413333 3.413333-8.533333 1.706667-11.946667M226.986667 738.986667l121.173333-194.56c6.826667-10.24 20.48-10.24 27.306667-1.706667l97.28 119.466667 128-226.986667c6.826667-10.24 20.48-11.946667 29.013333-1.706667l167.253333 238.933334s-10.24 78.506667-39.253333 85.333333c-30.72 6.826667-520.533333 0-530.773333-18.773333M442.026667 334.506667c0 32.426667-27.306667 59.733333-59.733334 59.733333s-59.733333-27.306667-59.733333-59.733333 27.306667-59.733333 59.733333-59.733334c34.133333 0 59.733333 27.306667 59.733334 59.733334" fill="#C8DFFC" p-id="5059"></path><path d="M721.92 790.186667c-6.826667 10.24-17.066667 17.066667-29.013333 18.773333l-442.026667 63.146667c-23.893333 3.413333-46.08-13.653333-49.493333-35.84L121.173333 273.066667c-3.413333-23.893333 13.653333-46.08 35.84-49.493334l35.84-5.12v-51.2l-42.666666 6.826667c-51.2 6.826667-88.746667 56.32-80.213334 107.52l81.92 568.32c6.826667 47.786667 49.493333 80.213333 97.28 73.386667l460.8-66.56c39.253333-5.12 69.973333-37.546667 73.386667-76.8-11.946667 5.12-23.893333 8.533333-37.546667 8.533333h-23.893333z" fill="#6FABFA" p-id="5060"></path><path d="M744.106667 34.133333H288.426667c-52.906667 0-95.573333 42.666667-95.573334 95.573334v37.546666l51.2-6.826666V128c0-23.893333 18.773333-42.666667 42.666667-42.666667H733.866667c23.893333 0 42.666667 18.773333 42.666666 42.666667v566.613333c0 6.826667-1.706667 11.946667-3.413333 17.066667l6.826667 47.786667c1.706667 6.826667 1.706667 13.653333 0 20.48 29.013333-13.653333 47.786667-42.666667 47.786666-76.8V119.466667c1.706667-46.08-35.84-85.333333-83.626666-85.333334z" fill="#6FABFA" p-id="5061"></path><path d="M245.76 696.32V211.626667l-51.2 6.826666v484.693334c0 47.786667 39.253333 85.333333 85.333333 85.333333h442.026667c6.826667-8.533333 8.533333-18.773333 6.826667-30.72l-3.413334-20.48H288.426667c-23.893333 1.706667-42.666667-17.066667-42.666667-40.96z" fill="#6FABFA" p-id="5062"></path><path d="M245.76 211.626667v-51.2l-52.906667 6.826666v52.906667zM781.653333 759.466667l-6.826666-47.786667c-6.826667 15.36-22.186667 25.6-39.253334 25.6h-8.533333l3.413333 20.48c1.706667 11.946667-1.706667 22.186667-6.826666 30.72h22.186666c13.653333 0 25.6-3.413333 37.546667-8.533333-1.706667-5.12-1.706667-11.946667-1.706667-20.48z" fill="#6FABFA" p-id="5063"></path></svg>