<?xml version="1.0" standalone="no"?><!DOCTYPE svg PUBLIC "-//W3C//DTD SVG 1.1//EN" "http://www.w3.org/Graphics/SVG/1.1/DTD/svg11.dtd"><svg t="1554642521752" class="icon" style="" viewBox="0 0 1024 1024" version="1.1" xmlns="http://www.w3.org/2000/svg" p-id="17095" xmlns:xlink="http://www.w3.org/1999/xlink" width="200" height="200"><defs><style type="text/css"></style></defs><path d="M154.48974206 226.63531111A72.21707166 72.21707166 0 0 1 226.63531111 154.48974206h570.72937778A72.21707166 72.21707166 0 0 1 869.51025794 226.63531111v570.72937778A72.21707166 72.21707166 0 0 1 797.36468889 869.51025794H226.70681373A72.21707166 72.21707166 0 0 1 154.48974206 797.36468889V226.70681373z m-143.00410448 0v570.72937778A215.22117617 215.22117617 0 0 0 226.63531111 1012.51436242h570.72937778A215.22117617 215.22117617 0 0 0 1012.51436242 797.36468889V226.70681373A215.22117617 215.22117617 0 0 0 797.36468889 11.48563758H226.70681373A215.22117617 215.22117617 0 0 0 11.48563758 226.63531111z" fill="#8684BC" p-id="17096"></path><path d="M225.99179265 583.50205225h286.00820735v71.50205058H225.99179265zM225.99179265 726.50615507h572.0164147v71.50205228H225.99179265zM225.99179265 225.99179265h71.50205228v286.00820735H225.99179265zM476.24897472 440.49794775c14.51491595 0 35.75102528-28.24330988 35.75102528-71.50205058s-21.23610935-71.50205225-35.75102528-71.50205224-35.75102528 28.24330988-35.75102697 71.50205224 21.23610935 71.50205225 35.75102697 71.50205058z m0 71.50205225c-59.20369881 0-107.25307755-63.99433682-107.25307755-143.00410283s48.04937876-143.00410283 107.25307755-143.00410452 107.25307755 63.99433682 107.25307753 143.00410452-48.04937876 143.00410283-107.25307753 143.00410283zM690.7551298 440.49794775c14.51491595 0 35.75102528-28.24330988 35.75102527-71.50205058s-21.23610935-71.50205225-35.75102527-71.50205224-35.75102528 28.24330988-35.75102697 71.50205224 21.23610935 71.50205225 35.75102697 71.50205058z m0 71.50205225c-59.20369881 0-107.25307755-63.99433682-107.25307755-143.00410283s48.04937876-143.00410283 107.25307755-143.00410452 107.25307755 63.99433682 107.25307755 143.00410452-48.04937876 143.00410283-107.25307755 143.00410283z" fill="#8684BC" p-id="17097"></path></svg>