<?xml version="1.0" standalone="no"?><!DOCTYPE svg PUBLIC "-//W3C//DTD SVG 1.1//EN" "http://www.w3.org/Graphics/SVG/1.1/DTD/svg11.dtd"><svg t="1554642344495" class="icon" style="" viewBox="0 0 1170 1024" version="1.1" xmlns="http://www.w3.org/2000/svg" p-id="2431" xmlns:xlink="http://www.w3.org/1999/xlink" width="228.515625" height="200"><defs><style type="text/css"></style></defs><path d="M323.215166 640.606635h567.325118c20.382938 0 42.707109 21.838863 49.501422 48.530806l72.796209 286.331753c6.794313 26.691943-9.220853 48.530806-36.398105 48.530806H236.830332c-26.691943 0-43.192417-21.838863-36.398105-48.530806l72.796209-286.331753c6.794313-26.691943 29.118483-48.530806 49.98673-48.530806z" fill="#DEE7F4" p-id="2432"></path><path d="M393.099526 291.184834h412.511848l-42.707109 150.445498H430.953555z" fill="#FAFCFF" p-id="2433"></path><path d="M762.904265 441.630332H430.953555L393.099526 291.184834h412.511848l-42.707109 150.445498z m-324.185782-9.706161h316.906162l37.36872-131.033176H405.717536l33.000947 131.033176z" fill="#A0C5FC" p-id="2434"></path><path d="M399.893839 286.331754L198.976303 762.904265 278.566825 956.056872 446.483412 437.262559z" fill="#FAFCFF" p-id="2435"></path><path d="M278.566825 956.056872L198.976303 762.904265 399.893839 286.331754 446.483412 437.262559 278.566825 956.056872z m-68.913744-193.152607l67.943128 165.00474L436.291943 437.262559l-37.854028-122.29763-188.784834 447.939336z" fill="#A0C5FC" p-id="2436"></path><path d="M796.390521 284.875829l208.197157 478.028436-79.590522 193.152607-169.85782-524.618009z" fill="#FAFCFF" p-id="2437"></path><path d="M924.997156 956.056872l-169.85782-524.618009 41.251185-146.563034 208.197157 478.028436-79.590522 193.152607zM765.330806 430.953555l160.636967 496.95545 67.943127-165.00474-195.579146-449.39526-33.000948 117.44455zM161.122275 398.923223V363.981043h12.618009v34.94218H208.682464v12.618009h-34.94218V446.483412h-12.618009v-34.94218H126.180095v-12.618009h34.94218zM1024.970616 583.340284V562.957346h7.279621v20.382938h20.382938v7.279621h-20.382938v20.382939h-7.279621v-20.382939H1004.587678v-7.279621h20.382938zM58.236967 927.423697l14.559242-14.559242 5.338388 5.338389-14.559242 14.559241 14.559242 14.559242-5.338388 5.338389-14.559242-14.559242-14.559242 14.559242-5.338389-5.338389 14.559242-14.559242-14.559242-14.559241L43.677725 912.379147l14.559242 15.04455z" fill="#A0C5FC" p-id="2438"></path><path d="M266.919431 956.056872h669.725119L768.727962 431.924171H434.836019z" fill="#EEF4FD" p-id="2439"></path><path d="M936.64455 956.056872H266.919431L434.836019 431.924171h333.406635L936.64455 956.056872z m-656.621801-9.706161h643.033175L761.448341 441.630332H442.11564L280.022749 946.350711z" fill="#A0C5FC" p-id="2440"></path><path d="M447.939336 761.933649c0 3.882464 0.970616 8.250237 2.426541 12.61801l16.985782 43.677725c5.338389 13.103318 17.47109 21.353555 31.545023 21.353554H693.990521c14.559242 0 27.177251-9.220853 32.030332-22.809478l15.04455-43.677725c1.455924-3.397156 1.941232-7.279621 1.941232-11.162086H999.734597l-71.825592 194.123223H261.095735L189.270142 761.933649h258.669194z" fill="#FAFCFF" p-id="2441"></path><path d="M927.909005 956.056872H261.095735L189.270142 761.933649h258.183886l0.485308 4.367773c0.485308 2.911848 0.970616 5.338389 1.941233 8.250237l16.985782 43.677725c5.338389 13.103318 17.47109 21.353555 31.545023 21.353554H693.990521c14.559242 0 27.177251-9.220853 32.030332-22.809478l15.04455-43.677725c0.970616-2.42654 1.455924-4.367773 1.455924-6.794313l0.485308-4.367773H999.734597l-71.825592 194.123223z m-660.018958-9.706161h653.224645l64.545972-174.710901h-233.918484c-0.485308 1.455924-0.970616 2.911848-1.455924 4.853081l-15.04455 43.677725c-6.309005 17.47109-22.809479 29.118483-41.251185 29.118484h-195.093839c-17.956398 0-33.971564-10.676777-40.765876-27.66256l-16.985782-43.677725c-0.970616-1.941232-1.455924-3.882464-1.941233-6.309005H203.344076l64.545971 174.710901z" fill="#A0C5FC" p-id="2442"></path><path d="M1029.823697 264.007583H1024c-2.911848 0-4.853081-2.42654-4.853081-4.853081 0-2.911848 1.941232-4.853081 4.853081-4.85308h18.927014c2.42654 0 4.853081 1.941232 4.853081 4.85308s-1.941232 4.853081-4.853081 4.853081h-13.103317z m-25.236019 0c-6.794313 0-13.103318 0-19.412323-0.485308-2.911848 0-4.853081-2.42654-4.85308-4.853081s2.42654-4.853081 4.85308-4.85308c6.309005 0 12.618009 0 19.412323 0.485308 2.911848 0 4.853081 2.42654 4.85308 4.85308s-1.941232 4.853081-4.85308 4.853081z m58.236967 0c-2.42654 0-4.853081-1.941232-4.853081-4.853081s1.941232-4.853081 4.853081-4.85308c6.309005 0 13.103318 0 19.412322-0.485308 2.911848 0 4.853081 1.941232 4.85308 4.85308s-1.941232 4.853081-4.85308 4.853081c-6.309005 0-13.103318 0-19.412322 0.485308z m-97.061612-0.970616c-6.794313 0-13.103318-0.485308-19.412322-0.485308-2.911848 0-4.853081-2.42654-4.853081-4.853081 0-2.911848 2.42654-4.853081 4.853081-4.85308 6.309005 0.485308 12.618009 0.485308 19.412322 0.485308 2.911848 0 4.853081 2.42654 4.853081 4.85308 0 2.911848-2.42654 4.853081-4.853081 4.853081z m135.886256 0c-2.42654 0-4.853081-1.941232-4.85308-4.853081s1.941232-4.853081 4.85308-4.85308c6.309005 0 13.103318-0.485308 19.412322-0.485308 2.42654 0 4.853081 1.941232 4.853081 4.85308s-1.941232 4.853081-4.853081 4.853081c-6.309005 0-12.618009 0-19.412322 0.485308z m38.824645-1.455924c-2.42654 0-4.853081-1.941232-4.853081-4.853081s1.941232-4.853081 4.853081-4.85308c6.309005-0.485308 13.103318-0.485308 19.412322-0.970617 2.911848 0 4.853081 1.941232 4.85308 4.853081s-1.941232 4.853081-4.85308 4.853081c-6.309005 0.485308-12.618009 0.970616-19.412322 0.970616z m-213.535545 0c-6.794313-0.485308-13.103318-0.485308-19.897631-0.970616-2.911848 0-4.853081-2.42654-4.367772-5.338389 0-2.911848 2.42654-4.853081 5.338388-4.367773 6.309005 0.485308 12.618009 0.970616 19.412323 0.970617 2.911848 0 4.853081 2.42654 4.367772 4.85308 0 2.911848-2.42654 4.853081-4.85308 4.853081z m-38.824645-2.426541c-6.794313-0.485308-13.588626-0.970616-19.89763-1.455924-2.911848 0-4.853081-2.42654-4.367773-5.338388 0-2.42654 2.42654-4.367773 5.338389-4.367773 6.309005 0.485308 12.618009 0.970616 19.412322 1.455924 2.911848 0 4.853081 2.42654 4.367773 5.338389 0 2.42654-2.42654 4.367773-4.853081 4.367772z m-38.339336-3.397156h-0.485308c-6.309005-0.485308-13.103318-1.455924-19.412323-1.941232-2.42654-0.485308-4.367773-2.911848-4.367772-5.338389 0.485308-2.42654 2.911848-4.367773 5.338388-4.367772 6.309005 0.970616 12.618009 1.455924 19.412323 1.941232 2.42654 0.485308 4.367773 2.42654 4.367772 5.338388-0.485308 2.42654-2.42654 4.367773-4.85308 4.367773z m-38.824645-4.853081h-0.485308c-6.309005-0.970616-13.103318-1.941232-19.412322-2.911848-2.42654-0.485308-4.367773-2.911848-3.882465-5.338389 0.485308-2.42654 2.911848-4.367773 5.338389-3.882464l18.927014 2.911848c2.42654 0.485308 4.367773 2.911848 4.367773 5.338389-0.485308 2.42654-2.42654 3.882464-4.853081 3.882464z m-38.339336-5.823696h-0.970617c-6.309005-0.970616-13.103318-2.42654-19.412322-3.397157-2.42654-0.485308-4.367773-2.911848-3.882464-5.823696 0.485308-2.42654 2.911848-4.367773 5.823696-3.882465 6.309005 1.455924 12.618009 2.42654 18.927015 3.397157 2.42654 0.485308 4.367773 2.911848 3.882464 5.823696 0 2.42654-1.941232 3.882464-4.367772 3.882465z m-37.854029-7.764929h-0.970616l-3.882464-0.970616c-4.853081-0.970616-10.191469-2.911848-15.529858-4.367773-2.42654-0.970616-3.882464-3.882464-2.911849-6.309005 0.970616-2.42654 3.882464-3.882464 6.309005-2.911848 4.853081 1.941232 9.706161 3.397156 14.559242 4.367773l3.882464 0.970616c2.42654 0.485308 4.367773 3.397156 3.882465 5.823696-1.455924 1.941232-3.397156 3.397156-5.338389 3.397157zM206.255924 224.69763c-5.338389 0-10.676777 0-16.500474-0.485308-2.911848 0-4.853081-2.42654-4.367772-5.338388 0-2.911848 2.42654-4.853081 5.338388-4.367773 6.309005 0.485308 12.618009 0.485308 18.927015 0.485308 2.42654 0 4.853081 1.941232 4.85308 4.853081s-1.941232 4.853081-4.85308 4.85308h-3.397157z m491.617062 0c-0.970616 0-1.455924 0-2.426541-0.485308-7.279621-3.882464-13.103318-8.250237-16.985781-12.618009-1.941232-1.941232-1.455924-4.853081 0.485308-6.794313 1.941232-1.941232 4.853081-1.455924 6.794312 0.485308 2.911848 3.397156 7.764929 6.794313 14.073934 10.191469 2.42654 1.455924 3.397156 4.367773 1.941232 6.794313 0 1.455924-1.941232 2.42654-3.882464 2.42654z m-469.292891-0.970616c-2.42654 0-4.367773-1.941232-4.853081-4.367772-0.485308-2.42654 1.455924-4.853081 4.367773-5.338389 6.309005-0.485308 12.618009-1.455924 18.927014-2.42654 2.42654-0.485308 5.338389 1.455924 5.823697 3.882464 0.485308 2.42654-1.455924 5.338389-3.882465 5.823697-6.309005 0.485308-13.103318 1.455924-20.382938 2.42654 0.485308 0 0.485308 0 0 0z m-57.751659-1.455924h-0.485308c-6.309005-0.970616-13.103318-1.941232-19.412322-3.397156-2.42654-0.485308-4.367773-2.911848-3.882465-5.823697 0.485308-2.42654 2.911848-4.367773 5.823697-3.882464 6.309005 1.455924 12.618009 2.42654 18.927014 3.397156 2.42654 0.485308 4.367773 2.911848 3.882465 5.338389-0.485308 2.42654-2.42654 4.367773-4.853081 4.367772zM266.919431 216.447393c-1.941232 0-3.882464-1.455924-4.85308-3.397156-0.485308-2.42654 0.970616-5.338389 3.397156-5.823697 5.823697-1.455924 12.132701-3.397156 17.956398-5.823696 2.42654-0.970616 5.338389 0.485308 6.309005 2.911848 0.970616 2.42654-0.485308 5.338389-2.911848 6.309005-6.309005 2.42654-12.618009 4.367773-18.927015 5.823696H266.919431z m-133.945023-2.42654h-1.455925l-18.927014-5.823697c-2.42654-0.970616-3.882464-3.882464-2.911848-6.309004 0.970616-2.42654 3.882464-3.882464 6.309005-2.911849 6.309005 1.941232 12.132701 3.882464 18.441706 5.823697 2.42654 0.970616 3.882464 3.397156 3.397156 5.823697-0.970616 1.941232-2.911848 3.397156-4.85308 3.397156zM303.317536 203.829384c-1.941232 0-3.397156-0.970616-4.367773-2.911848-0.970616-2.42654 0-5.338389 2.42654-6.309005 5.823697-2.42654 11.647393-5.338389 16.985782-8.250237 2.42654-1.455924 5.338389-0.485308 6.794313 1.941232 1.455924 2.42654 0.485308 5.338389-1.941232 6.794313-5.823697 2.911848-11.647393 5.823697-17.956398 8.735545-0.485308-0.485308-0.970616 0-1.941232 0z m-207.226541-2.42654c-0.485308 0-1.455924 0-1.941232-0.485308-5.823697-2.42654-12.132701-5.338389-17.956398-7.764929-2.42654-0.970616-3.397156-3.882464-2.42654-6.309005 0.970616-2.42654 3.882464-3.397156 6.309004-2.42654 5.823697 2.911848 11.647393 5.338389 17.47109 7.764929 2.42654 0.970616 3.882464 3.882464 2.426541 6.309004 0 1.455924-1.941232 2.911848-3.882465 2.911849z m584.796209-5.823697c-0.970616 0-2.42654-0.485308-2.911849-0.970616-1.941232-1.941232-2.42654-4.853081-0.485308-6.794313 3.397156-4.367773 9.706161-8.250237 17.956398-11.647393 2.42654-0.970616 5.338389 0 6.309005 2.42654 0.970616 2.42654 0 5.338389-2.42654 6.309005-8.735545 3.397156-12.618009 6.794313-14.559242 9.220853-0.970616 0.970616-2.42654 1.455924-3.882464 1.455924z m-343.112796-10.191469c-1.455924 0-3.397156-0.970616-4.367773-2.426541-1.455924-2.42654-0.485308-5.338389 1.455924-6.794312l16.015166-10.19147c2.42654-1.455924 5.338389-0.970616 6.794313 1.455925 1.455924 2.42654 0.970616 5.338389-1.455924 6.794312-5.338389 3.882464-11.162085 7.279621-16.500474 10.676778 0 0.485308-0.970616 0.485308-1.941232 0.485308z m-276.625593-0.485308c-0.970616 0-1.455924 0-2.42654-0.485308-5.338389-2.911848-11.162085-6.309005-16.985782-9.706162-2.42654-1.455924-2.911848-4.367773-1.941232-6.794312 1.455924-2.42654 4.367773-2.911848 6.794312-1.941233 5.823697 3.397156 11.162085 6.309005 16.985782 9.220854 2.42654 1.455924 3.397156 4.367773 1.941233 6.794312-0.970616 1.941232-2.911848 2.911848-4.367773 2.911849z m654.195261-6.309005c-1.941232 0-3.882464-0.970616-4.367773-2.911848-0.970616-2.42654 0.485308-5.338389 2.911849-6.309005 5.338389-1.941232 11.162085-4.367773 17.47109-7.279621 2.42654-0.970616 5.338389 0 6.309004 2.42654 0.970616 2.42654 0 5.338389-2.42654 6.309005-6.794313 2.911848-12.618009 5.823697-18.441706 7.764929h-1.455924zM27.177251 165.490047c-0.970616 0-1.941232 0-2.42654-0.970616-5.338389-3.397156-10.676777-6.794313-16.500474-10.676777-2.42654-1.455924-2.911848-4.367773-1.455924-6.794313 1.455924-2.42654 4.367773-2.911848 6.794313-1.455924 5.338389 3.882464 10.676777 7.279621 16.015165 10.676777 2.42654 1.455924 2.911848 4.367773 1.455925 6.794313-0.485308 1.455924-1.941232 2.42654-3.882465 2.42654z m342.627488-1.941232c-1.455924 0-2.911848-0.485308-3.882464-1.941232-1.455924-1.941232-0.970616-5.338389 0.970616-6.794313 4.853081-3.882464 9.706161-7.764929 15.04455-12.132701 1.941232-1.455924 5.338389-1.455924 6.794313 0.485308 1.455924 1.941232 1.455924 5.338389-0.485309 6.794313-5.338389 4.367773-10.191469 8.250237-15.529857 12.132701-0.970616 1.455924-1.941232 1.455924-2.911849 1.455924z m380.966825-0.970616c-1.941232 0-3.397156-0.970616-4.367773-2.42654-1.455924-2.42654-0.485308-5.338389 1.941233-6.794313 5.823697-2.911848 11.162085-6.309005 16.985782-9.220853 2.42654-1.455924 5.338389-0.485308 6.794312 1.941232 1.455924 2.42654 0.485308 5.338389-1.941232 6.794313-5.338389 3.397156-11.162085 6.309005-16.985782 9.706161h-2.42654z m33.486256-19.89763c-1.455924 0-2.911848-0.970616-3.882465-1.941233-1.455924-2.42654-0.970616-5.338389 1.455925-6.794312 5.823697-3.882464 10.676777-7.764929 15.044549-11.162086 1.941232-1.941232 5.338389-1.455924 6.794313 0.485308 1.941232 1.941232 1.455924 5.338389-0.485308 6.794313-4.367773 3.882464-10.191469 7.764929-16.015166 11.647394-0.970616 0.485308-1.941232 0.970616-2.911848 0.970616z m-384.363981-3.397157c-1.455924 0-2.911848-0.485308-3.882465-1.455924-1.941232-1.941232-1.455924-5.338389 0.485308-6.794313 4.853081-4.367773 9.706161-8.735545 14.559242-12.618009 1.941232-1.941232 4.853081-1.455924 6.794313 0.485308 1.941232 1.941232 1.455924 4.853081-0.485308 6.794313-4.853081 4.367773-9.706161 8.250237-14.559242 12.618009-0.485308 0.485308-1.941232 0.970616-2.911848 0.970616z m92.208531-17.956398c-1.941232 0-3.397156-0.970616-4.367773-2.911848-0.970616-2.42654 0-5.338389 2.42654-6.309005 4.367773-1.941232 7.764929-5.823697 11.162086-11.647393 1.455924-2.42654 4.367773-3.397156 6.794313-1.941232 2.42654 1.455924 3.397156 4.367773 1.941232 6.794312-3.882464 7.764929-9.220853 13.103318-15.529858 16.015166-1.455924-0.485308-1.941232 0-2.42654 0z m-18.927015-0.485308c-0.485308 0-1.455924 0-1.941232-0.485308-5.823697-2.42654-11.647393-6.309005-17.47109-12.132701-1.941232-1.941232-1.941232-4.853081 0-6.794313 1.941232-1.941232 4.853081-1.941232 6.794313 0 4.853081 4.367773 9.706161 8.250237 14.073934 9.706161 2.42654 0.970616 3.882464 3.882464 2.42654 6.309005-0.485308 2.42654-1.941232 3.397156-3.882465 3.397156z m340.200948-3.397156c-0.970616 0-1.941232-0.485308-2.911848-0.970616-1.941232-1.455924-2.42654-4.853081-0.970616-6.794313 3.397156-4.367773 3.882464-7.279621 3.882464-8.735545 0-0.970616-0.485308-1.941232-0.970616-2.911849-1.941232-1.941232-1.455924-4.853081 0.485308-6.794312 1.941232-1.941232 4.853081-1.455924 6.794313 0.485308 2.42654 2.42654 3.397156 5.823697 3.397156 9.220853 0 4.367773-1.941232 9.220853-5.823696 14.559242-0.970616 0.970616-2.42654 1.941232-3.882465 1.941232z m-384.363981-3.882465c-1.455924 0-2.911848-0.485308-3.882464-1.455924-1.941232-1.941232-1.455924-4.853081 0.485308-6.794313 5.338389-4.367773 10.191469-8.735545 15.04455-12.618009-3.397156-5.823697-6.309005-11.647393-8.735545-17.956398-0.970616-2.42654 0.485308-5.338389 2.911848-6.309005 2.42654-0.970616 5.338389 0.485308 6.309005 2.911848 1.941232 5.823697 4.853081 11.162085 8.250237 16.500474 1.455924 1.941232 0.970616 4.853081-0.970616 6.309005 0.970616 1.941232 0.485308 4.367773-1.455925 5.823697-4.853081 3.882464-9.706161 8.250237-14.559241 12.618009-0.970616 0.485308-1.941232 0.970616-3.397157 0.970616z m369.319432-20.868246h-0.970617c-5.338389-0.970616-11.162085-1.455924-18.441706-1.455924-2.911848 0-4.853081-2.42654-4.85308-4.853081 0-2.911848 2.42654-4.853081 4.85308-4.85308 7.764929 0 14.559242 0.485308 19.897631 1.455924 2.42654 0.485308 4.367773 2.911848 3.882464 5.338388 0 2.42654-1.941232 4.367773-4.367772 4.367773z m-38.824645-2.42654c-6.794313-0.485308-13.103318-1.455924-19.89763-2.426541-2.42654-0.485308-4.367773-2.911848-3.882465-5.338388 0.485308-2.42654 2.911848-4.367773 5.338389-3.882465 6.794313 0.970616 13.103318 1.941232 18.927014 2.42654 2.42654 0 4.853081 2.42654 4.367773 5.338389 0 1.941232-1.941232 3.882464-4.853081 3.882465z m-249.448341-0.970617c-1.455924 0-2.911848-0.485308-3.882465-1.941232-3.882464-5.338389-8.250237-8.735545-12.618009-9.706161-2.42654-0.970616-3.882464-3.397156-3.397157-5.823697s3.397156-3.882464 5.823697-3.397156c6.794313 1.941232 12.132701 6.309005 17.47109 13.588626 1.455924 1.941232 0.970616 5.338389-0.970616 6.794312-0.485308 0.485308-1.455924 0.485308-2.42654 0.485308z m-50.957346-0.485308c-1.455924 0-2.911848-0.485308-3.882465-1.941232-1.455924-2.42654-0.970616-5.338389 0.970616-6.794313 6.794313-4.853081 12.618009-7.764929 17.956399-10.191469 2.42654-0.970616 5.338389 0.485308 6.309004 2.911849 0.970616 2.42654-0.485308 5.338389-2.911848 6.309004-4.853081 1.941232-9.706161 4.853081-16.015166 8.735545-0.485308 0.970616-1.455924 0.970616-2.42654 0.970616z m262.551659-4.85308h-0.970617c-5.823697-1.455924-12.618009-2.911848-18.927014-4.853081-2.42654-0.485308-3.882464-3.397156-3.397156-5.823696 0.485308-2.42654 3.397156-3.882464 5.823697-3.397157 6.309005 1.941232 12.618009 3.397156 18.441706 4.853081 2.42654 0.485308 4.367773 3.397156 3.882464 5.823696-0.970616 1.941232-2.911848 3.397156-4.85308 3.397157z m-37.854029-10.191469h-1.455924c-6.309005-1.941232-12.618009-3.882464-18.441706-5.823697-2.42654-0.970616-3.882464-3.397156-2.911849-6.309005 0.970616-2.42654 3.397156-3.882464 6.309005-2.911848 6.309005 1.941232 12.132701 3.882464 18.441706 5.823697 2.42654 0.970616 3.882464 3.397156 3.397157 5.823696-1.455924 2.42654-3.397156 3.397156-5.338389 3.397157z m-36.883412-12.132702c-0.485308 0-0.970616 0-1.455924-0.485308-6.309005-1.941232-12.132701-4.367773-18.441707-6.309005-2.42654-0.970616-3.882464-3.882464-2.911848-6.309004 0.970616-2.42654 3.882464-3.882464 6.309005-2.911849 5.823697 2.42654 12.132701 4.367773 18.441706 6.309005 2.42654 0.970616 3.882464 3.882464 2.911848 6.309005-0.970616 2.42654-2.911848 3.397156-4.85308 3.397156zM431.924171 58.722275c-2.42654 0-4.367773-1.941232-4.853081-4.367773 0-1.941232-0.485308-4.367773-0.485308-6.309004 0-5.338389 0.485308-10.191469 1.941232-15.04455 0.970616-2.42654 3.397156-3.882464 5.823697-3.397157 2.42654 0.970616 3.882464 3.397156 3.397156 5.823697-0.485308 4.367773-0.970616 8.250237-0.970616 12.61801 0 1.941232 0 3.397156 0.485308 5.338388 0 2.42654-1.941232 4.853081-5.338388 5.338389 0.485308 0 0.485308 0 0 0z m178.593365-10.191469c-0.485308 0-0.970616 0-1.455925-0.485308l-18.441706-6.794313c-2.42654-0.970616-3.882464-3.882464-2.911848-6.309005 0.970616-2.42654 3.882464-3.882464 6.309005-2.911848l18.441706 6.794313c2.42654 0.970616 3.882464 3.882464 2.911848 6.309004-0.970616 2.42654-2.911848 3.397156-4.85308 3.397157z m-36.398105-13.103318c-0.485308 0-0.970616 0-1.455924-0.485308-6.309005-2.42654-12.132701-4.367773-18.441706-6.309005-2.42654-0.970616-3.882464-3.397156-2.911848-6.309004 0.970616-2.42654 3.397156-3.882464 6.309004-2.911849 5.823697 1.941232 12.132701 4.367773 18.441707 6.309005 2.42654 0.970616 3.882464 3.882464 2.911848 6.309005-0.970616 1.941232-2.911848 3.397156-4.853081 3.397156z m-36.883412-12.132701h-1.455924c-6.794313-1.941232-12.618009-3.882464-18.441706-5.338389-2.42654-0.485308-4.367773-3.397156-3.397157-5.823697 0.485308-2.42654 3.397156-4.367773 5.823697-3.397156 5.823697 1.455924 12.132701 3.397156 18.927014 5.338389 2.42654 0.970616 3.882464 3.397156 3.397157 5.823696-0.970616 1.941232-2.911848 3.397156-4.853081 3.397157z m-93.664455 0c-1.455924 0-2.42654-0.485308-3.397156-1.455924-1.941232-1.941232-1.455924-4.853081 0.485308-6.794313 1.455924-1.455924 3.397156-2.911848 4.85308-3.882465 3.882464-2.911848 8.735545-4.853081 14.073934-6.309004 2.42654-0.485308 5.338389 0.970616 5.823697 3.397156 0.485308 2.42654-0.970616 5.338389-3.397157 5.823697-4.367773 0.970616-7.764929 2.911848-11.162085 4.85308-1.455924 0.970616-2.911848 1.941232-3.882465 2.911849-0.970616 0.970616-1.941232 1.455924-3.397156 1.455924z m55.810427-9.220853h-0.970617c-6.794313-0.970616-13.103318-1.941232-18.441706-1.941233-2.911848 0-4.853081-2.42654-4.85308-4.85308 0-2.911848 2.42654-4.853081 4.85308-4.853081 5.823697 0 12.618009 0.970616 19.897631 1.941233 2.42654 0.485308 4.367773 2.911848 3.882464 5.338388 0 2.42654-1.941232 4.367773-4.367772 4.367773z" fill="#D8E8FF" p-id="2443"></path><path d="M1103.590521 274.68436l-26.206635-15.04455 26.206635-15.044549 15.04455-26.206635 15.04455 26.206635 26.206635 15.044549-26.206635 15.04455-15.04455 26.206635z" fill="#A0C5FC" p-id="2444"></path><path d="M1118.635071 310.597156l-18.441706-33.000947-33.000948-18.441707 33.000948-18.441706 18.441706-33.000948 18.441706 33.000948 33.000948 18.441706-33.000948 18.441707-18.441706 33.000947zM1087.090047 259.63981l19.897631 11.162086 11.162085 19.89763 11.162085-19.89763 19.897631-11.162086-19.897631-11.162085-11.162085-19.89763-11.162085 19.89763-19.897631 11.162085z" fill="#A0C5FC" p-id="2445"></path><path d="M249.448341 779.404739l-26.206635-15.044549 26.206635-15.04455 15.04455-26.206635 15.04455 26.206635 26.206635 15.04455-26.206635 15.044549-15.04455 26.206635z" fill="#FFFFFF" p-id="2446"></path><path d="M264.492891 815.317536l-18.441706-33.000948-33.000948-18.441706 33.000948-18.441707 18.441706-33.000948 18.441706 33.000948 33.000948 18.441707-33.000948 18.441706-18.441706 33.000948zM232.947867 764.36019l19.897631 11.162085 11.162085 19.89763 11.162085-19.89763 19.897631-11.162085-19.897631-11.162086-11.162085-19.89763-11.162085 19.89763-19.897631 11.162086z" fill="#A0C5FC" p-id="2447"></path><path d="M798.331754 875.981043m-16.985782 0a16.985782 16.985782 0 1 0 33.971564 0 16.985782 16.985782 0 1 0-33.971564 0Z" fill="#FFFFFF" p-id="2448"></path><path d="M798.331754 897.819905c-12.132701 0-21.838863-9.706161-21.838863-21.838862s9.706161-21.838863 21.838863-21.838863 21.838863 9.706161 21.838862 21.838863-9.706161 21.838863-21.838862 21.838862z m0-33.971564c-6.794313 0-12.132701 5.338389-12.132702 12.132702s5.338389 12.132701 12.132702 12.132701 12.132701-5.338389 12.132701-12.132701-5.338389-12.132701-12.132701-12.132702z" fill="#A0C5FC" p-id="2449"></path><path d="M167.916588 204.314692c1.455924 3.882464 4.367773 5.338389 5.823696 5.823697l4.853081 1.455924c48.530806 13.103318 87.35545 23.294787 117.44455 24.265403 16.015166 0.485308 29.603791-1.941232 40.765876-6.794313 12.132701-5.823697 21.353555-14.559242 29.118484-27.662559 4.853081-8.735545 10.676777-25.236019 10.191469-43.192417-0.485308-6.309005-1.455924-13.103318-3.882464-19.412323 3.882464-7.764929 3.397156-7.279621 13.588625-22.809478 1.455924-2.42654 8.250237-8.250237 6.309005-11.647394-1.941232-3.397156-10.676777 0-14.559242 5.823697-8.250237 13.103318-15.04455 17.956398-20.868246 13.588626 0.970616-0.970616 1.455924-2.42654 1.455924-3.882465 0-1.455924-0.485308-2.911848-1.455924-3.882464-2.42654-2.42654-4.367773-4.367773-7.279621-6.309005-5.338389-3.882464-14.559242-9.706161-26.206635-14.073934-2.42654-0.970616-5.338389-1.941232-7.764929-2.42654-14.073934-3.882464-28.633175-3.882464-42.707109-0.485308-17.956398 4.367773-24.265403 13.103318-37.854028 31.545024-16.500474 22.324171-33.000948 68.913744-63.090048 71.825592-0.970616 0.970616-4.853081 4.367773-3.882464 8.250237z" fill="#FFFFFF" p-id="2450"></path><path d="M341.171564 155.783886c3.397156 0.970616 4.853081 4.367773 3.882464 7.279621l-7.27962 24.750711c-0.970616 2.911848-4.367773 4.853081-7.279621 3.882464-2.911848-0.970616-4.853081-4.367773-3.882465-7.27962l7.279621-24.750711c1.455924-2.911848 4.367773-4.367773 7.279621-3.882465z m-43.192417 17.956398h0.485308c2.911848 0.970616 4.367773 4.367773 3.397156 7.279621l-6.309004 16.500474c-0.970616 2.911848-4.367773 4.367773-7.279621 3.397157-2.911848-0.970616-4.367773-4.367773-3.397157-7.279621l6.309005-16.500474c0.970616-2.911848 3.882464-4.367773 6.794313-3.397157z" fill="#A0C5FC" p-id="2451"></path><path d="M167.916588 204.314692c1.455924 3.882464 4.367773 5.338389 5.823696 5.823697l4.853081 1.455924c48.530806 13.103318 87.35545 23.294787 117.44455 24.265403 16.015166 0.485308 29.603791-1.941232 40.765876-6.794313 12.132701-5.823697 21.353555-14.559242 29.118484-27.662559 4.853081-8.735545 10.676777-25.236019 10.191469-43.192417-0.485308-6.309005-1.455924-13.103318-3.882464-19.412323 3.882464-7.764929 3.397156-7.279621 13.588625-22.809478 1.455924-2.42654 8.250237-8.250237 6.309005-11.647394-1.941232-3.397156-10.676777 0-14.559242 5.823697-12.132701 19.89763-15.529858 29.603791-38.339336 39.309953-1.455924 0.970616-2.42654 1.455924-3.882465 2.42654-14.073934 8.250237-29.603791 14.073934-44.163033 17.47109-13.588626 2.911848-25.721327 3.397156-34.456872 0.970616-2.911848-0.970616-6.309005 0.970616-6.794313 3.882464-0.970616 2.911848 0.970616 5.823697 3.882465 6.794313 10.676777 2.911848 24.265403 2.42654 39.79526-0.970616 15.529858-3.397156 32.030332-9.706161 47.074882-18.441706 7.764929-4.367773 15.04455-9.220853 21.838862-14.559242 1.455924 3.882464 1.941232 8.250237 1.941233 12.132702 0.485308 16.500474-4.853081 31.059716-8.735545 36.883412-26.691943 45.133649-78.619905 31.059716-173.254977 5.823697 33.971564-4.853081 58.722275-89.296682 93.179147-98.032228 32.030332-7.764929 57.751659 7.764929 66.972512 15.04455 1.941232 1.455924 3.882464 3.397156 5.823697 5.338389 0.970616 0.970616 2.42654 1.455924 3.882464 1.455924 1.455924 0 2.911848-0.485308 3.882465-1.455924 0.970616-0.970616 1.455924-2.42654 1.455924-3.882465 0-1.455924-0.485308-2.911848-1.455924-3.882464-2.42654-2.42654-4.367773-4.367773-7.279621-6.309005-5.338389-3.882464-14.559242-9.706161-26.206635-14.073934-2.42654-0.970616-5.338389-1.941232-7.764929-2.42654-14.073934-3.882464-28.633175-3.882464-42.707109-0.485308-17.956398 4.367773-24.265403 13.103318-37.854029 31.545024-16.500474 22.324171-33.000948 68.913744-63.090047 71.825592-0.485308 0.485308-4.367773 3.882464-3.397156 7.764929z" fill="#A0C5FC" p-id="2452"></path><path d="M267.404739 129.577251c0.970616 0 1.455924 0.485308 1.941233 0.970616l28.633175 22.809479c2.42654 1.941232 2.911848 5.823697 0.970616 8.250237-1.941232 2.42654-5.823697 2.911848-8.250237 0.970616L262.066351 139.76872c-2.42654-1.941232-2.911848-5.823697-0.970616-8.250237 1.941232-1.941232 4.367773-2.42654 6.309004-1.941232z" fill="#A0C5FC" p-id="2453"></path></svg>