<?xml version="1.0" standalone="no"?><!DOCTYPE svg PUBLIC "-//W3C//DTD SVG 1.1//EN" "http://www.w3.org/Graphics/SVG/1.1/DTD/svg11.dtd"><svg t="1554642954942" class="icon" style="" viewBox="0 0 1024 1024" version="1.1" xmlns="http://www.w3.org/2000/svg" p-id="13211" xmlns:xlink="http://www.w3.org/1999/xlink" width="200" height="200"><defs><style type="text/css"></style></defs><path d="M672.914286 1024h-321.828572c-193.097143 0-351.085714-157.988571-351.085714-351.085714v-321.828572c0-193.097143 157.988571-351.085714 351.085714-351.085714h321.828572c194.56 0 351.085714 157.988571 351.085714 351.085714v321.828572c0 193.097143-157.988571 351.085714-351.085714 351.085714z" fill="#DCE8FF" p-id="13212"></path><path d="M465.188571 826.514286l-24.868571-14.628572 1.462857-2.925714c4.388571-7.314286 13.165714-8.777143 20.48-4.388571 7.314286 4.388571 8.777143 13.165714 4.388572 20.48l-1.462858 1.462857z" fill="#FFFFFF" p-id="13213"></path><path d="M727.04 819.2l-374.491429-1.462857c-17.554286 0-30.72-14.628571-30.72-30.72v-330.605714c0-17.554286 14.628571-30.72 30.72-30.72h434.468572c17.554286 0 30.72 14.628571 30.72 30.72v272.091428c1.462857 49.737143-39.497143 90.697143-90.697143 90.697143z" fill="#B3CDFE" p-id="13214"></path><path d="M672.914286 819.2h-438.857143c-16.091429 0-29.257143-13.165714-29.257143-29.257143v-555.885714c0-16.091429 13.165714-29.257143 29.257143-29.257143h438.857143c16.091429 0 29.257143 13.165714 29.257143 29.257143v555.885714c0 23.405714 27.794286 29.257143 29.257142 29.257143h-58.514285z" fill="#1E63EC" p-id="13215"></path><path d="M242.834286 380.342857c-8.777143 0-14.628571-5.851429-14.628572-14.628571v-14.628572c0-8.777143 5.851429-14.628571 14.628572-14.628571s14.628571 5.851429 14.628571 14.628571v14.628572c0 8.777143-5.851429 14.628571-14.628571 14.628571zM242.834286 317.44c-8.777143 0-14.628571-5.851429-14.628572-14.628571v-33.645715c0-21.942857 19.017143-40.96 40.96-40.96h52.662857c8.777143 0 14.628571 5.851429 14.628572 14.628572s-5.851429 14.628571-14.628572 14.628571h-52.662857c-5.851429 0-11.702857 5.851429-11.702857 11.702857v33.645715c0 7.314286-5.851429 14.628571-14.628571 14.628571z" fill="#FFFFFF" p-id="13216"></path><path d="M585.142857 409.6h-263.314286c-7.314286 0-14.628571-7.314286-14.628571-14.628571s7.314286-14.628571 14.628571-14.628572h263.314286c7.314286 0 14.628571 7.314286 14.628572 14.628572s-7.314286 14.628571-14.628572 14.628571zM497.371429 512h-175.542858c-7.314286 0-14.628571-7.314286-14.628571-14.628571s7.314286-14.628571 14.628571-14.628572h175.542858c7.314286 0 14.628571 7.314286 14.628571 14.628572s-7.314286 14.628571-14.628571 14.628571zM662.674286 598.308571l-4.388572-10.24-38.034285 36.571429c-2.925714 2.925714-8.777143 5.851429-13.165715 5.851429s-10.24-1.462857-13.165714-5.851429c-2.925714-2.925714-5.851429-7.314286-5.851429-13.165714s1.462857-8.777143 5.851429-11.702857l38.034286-36.571429-10.24-4.388571c-8.777143-2.925714-19.017143-5.851429-29.257143-5.851429-20.48 0-39.497143 7.314286-54.125714 21.942857-21.942857 20.48-27.794286 51.2-17.554286 78.994286l-73.142857 70.217143c-5.851429 5.851429-8.777143 13.165714-8.777143 20.48s2.925714 14.628571 8.777143 20.48c5.851429 5.851429 13.165714 8.777143 21.942857 8.777143s16.091429-2.925714 21.942857-8.777143l73.142857-70.217143c8.777143 2.925714 19.017143 4.388571 27.794286 4.388571 20.48 0 39.497143-7.314286 54.125714-21.942857 21.942857-19.017143 27.794286-51.2 16.091429-78.994286z" fill="#CAE0FF" p-id="13217"></path></svg>