<?xml version="1.0" standalone="no"?><!DOCTYPE svg PUBLIC "-//W3C//DTD SVG 1.1//EN" "http://www.w3.org/Graphics/SVG/1.1/DTD/svg11.dtd"><svg t="1554642476405" class="icon" style="" viewBox="0 0 1024 1024" version="1.1" xmlns="http://www.w3.org/2000/svg" p-id="12126" xmlns:xlink="http://www.w3.org/1999/xlink" width="200" height="200"><defs><style type="text/css"></style></defs><path d="M0 376h256v215H0zM256 807.5h256V1024H256zM512 591h256v216.5H512z" fill="#FFFFFF" p-id="12127"></path><path d="M256 376h256v215H256z" fill="#E0DA8C" p-id="12128"></path><path d="M256 591h256v216.5H256z" fill="#C7CDF5" p-id="12129"></path><path d="M512 807.5h256V1024H512z" fill="#C0D6C3" p-id="12130"></path><path d="M512 376h256v215H512z" fill="#A8DAFF" p-id="12131"></path><path d="M0 591h256v216.5H0z" fill="#F7CECE" p-id="12132"></path><path d="M768 376h256v215H768z" fill="#CCC9B1" p-id="12133"></path><path d="M768 591h256v216.5H768z" fill="#F7CECE" p-id="12134"></path><path d="M768 1024h76c99.4 0 180-80.6 180-180v-36.5H768V1024z" fill="#E0DA8C" p-id="12135"></path><path d="M0 807.5V844c0 99.4 80.6 180 180 180h76V807.5H0z" fill="#92D1FF" p-id="12136"></path><path d="M844 0H180C81 0 0 81 0 180v196h1024V180c0-99-81-180-180-180zM285.1 187c0-18.1 14.8-33 33-33h387.8c18.1 0 33 14.8 33 33s-14.8 33-33 33H318.1c-18.1 0-33-14.8-33-33z" fill="#92C5F7" p-id="12137"></path><path d="M318.1 220h387.8c18.1 0 33-14.8 33-33 0-18.1-14.8-33-33-33H318.1c-18.1 0-33 14.8-33 33s14.9 33 33 33z" fill="#FFFFFF" p-id="12138"></path></svg>