<?xml version="1.0" standalone="no"?><!DOCTYPE svg PUBLIC "-//W3C//DTD SVG 1.1//EN" "http://www.w3.org/Graphics/SVG/1.1/DTD/svg11.dtd"><svg t="1554643045244" class="icon" style="" viewBox="0 0 1024 1024" version="1.1" xmlns="http://www.w3.org/2000/svg" p-id="15725" xmlns:xlink="http://www.w3.org/1999/xlink" width="200" height="200"><defs><style type="text/css"></style></defs><path d="M778.971429 789.942857h-263.314286c-3.657143 0-7.314286 0-7.314286 3.657143l-109.714286 146.285714c-7.314286 7.314286-47.542857-3.657143-51.2-10.971428l-3.657142-131.657143c0-3.657143-36.571429-7.314286-43.885715-7.314286H164.571429C109.714286 789.942857 69.485714 746.057143 69.485714 694.857143V241.371429C69.485714 190.171429 113.371429 146.285714 164.571429 146.285714h614.4c54.857143 0 95.085714 43.885714 95.085714 95.085715V694.857143c0 51.2-40.228571 95.085714-95.085714 95.085714z" fill="#BFD5EC" p-id="15726"></path><path d="M384 896c3.657143-7.314286 10.971429-10.971429 14.628571-18.285714 14.628571-18.285714 29.257143-36.571429 43.885715-58.514286l14.628571-18.285714c3.657143-3.657143 3.657143-7.314286 3.657143-7.314286l14.628571-21.942857h380.342858c43.885714 0 80.457143-36.571429 80.457142-80.457143V157.257143c0-43.885714-36.571429-80.457143-80.457142-80.457143h-694.857143c-43.885714 0-80.457143 36.571429-80.457143 80.457143V694.857143c0 43.885714 36.571429 80.457143 80.457143 80.457143h186.514285l3.657143 43.885714v25.6c0 18.285714 3.657143 36.571429 7.314286 54.857143 0 7.314286 3.657143 14.628571 3.657143 21.942857 10.971429-7.314286 14.628571-18.285714 21.942857-25.6zM36.571429 157.257143C36.571429 87.771429 95.085714 29.257143 164.571429 29.257143h694.857142C928.914286 29.257143 987.428571 87.771429 987.428571 157.257143V694.857143c0 69.485714-58.514286 128-128 128h-354.742857s-120.685714 171.885714-153.6 171.885714c-32.914286 0-43.885714-171.885714-43.885714-171.885714H164.571429C95.085714 822.857143 36.571429 764.342857 36.571429 694.857143V157.257143z" fill="#4A83B7" p-id="15727"></path><path d="M365.714286 303.542857c40.228571 0 69.485714 10.971429 91.428571 36.571429 21.942857 25.6 32.914286 54.857143 32.914286 95.085714 0 36.571429-10.971429 69.485714-29.257143 91.428571 10.971429 10.971429 18.285714 25.6 29.257143 36.571429l-25.6 21.942857c-10.971429-14.628571-18.285714-25.6-29.257143-40.228571-18.285714 10.971429-40.228571 18.285714-65.828571 18.285714-40.228571 0-69.485714-14.628571-91.428572-36.571429-25.6-18.285714-36.571429-51.2-36.571428-87.771428 0-40.228571 10.971429-69.485714 32.914285-95.085714 21.942857-25.6 51.2-40.228571 91.428572-40.228572z m0 36.571429c-25.6 0-47.542857 10.971429-62.171429 25.6-14.628571 18.285714-21.942857 40.228571-21.942857 69.485714 0 29.257143 7.314286 51.2 21.942857 69.485714 14.628571 18.285714 32.914286 25.6 62.171429 25.6 18.285714 0 29.257143-3.657143 43.885714-10.971428-14.628571-14.628571-25.6-29.257143-36.571429-40.228572l25.6-25.6c14.628571 14.628571 25.6 25.6 36.571429 40.228572 10.971429-14.628571 14.628571-36.571429 14.628571-62.171429 0-29.257143-7.314286-54.857143-21.942857-69.485714-14.628571-14.628571-36.571429-21.942857-62.171428-21.942857z m248.685714-29.257143h47.542857l98.742857 256h-43.885714l-21.942857-65.828572h-109.714286l-25.6 65.828572h-43.885714l98.742857-256z m-18.285714 157.257143h80.457143l-40.228572-113.371429-40.228571 113.371429z m0 0" fill="#4A83B7" p-id="15728"></path></svg>